<?xml version="1.0" standalone="no"?>
<!DOCTYPE svg PUBLIC "-//W3C//DTD SVG 20010904//EN"
 "http://www.w3.org/TR/2001/REC-SVG-20010904/DTD/svg10.dtd">
<svg version="1.0" xmlns="http://www.w3.org/2000/svg"
 width="948.000000pt" height="948.000000pt" viewBox="0 0 948.000000 948.000000"
 preserveAspectRatio="xMidYMid meet">
<metadata>
Created by potrace 1.11, written by Peter Selinger 2001-2013
</metadata>
<g transform="translate(0.000000,948.000000) scale(0.100000,-0.100000)"
fill="#000000" stroke="none">
<path d="M4588 9475 c-1 -1 -30 -6 -63 -9 -85 -9 -165 -20 -220 -31 -44 -8
-208 -45 -223 -50 -7 -3 -16 -5 -20 -6 -4 -1 -18 -6 -32 -11 -14 -5 -32 -11
-40 -13 -31 -7 -147 -48 -190 -67 -25 -10 -54 -23 -65 -27 -60 -24 -272 -133
-350 -180 -79 -48 -231 -152 -275 -188 -8 -7 -42 -34 -75 -60 -120 -96 -326
-296 -420 -407 -28 -33 -64 -76 -81 -95 -60 -71 -254 -341 -254 -356 0 -3 -5
-11 -10 -18 -18 -21 -90 -137 -85 -137 2 0 -6 -15 -18 -33 -21 -31 -146 -279
-182 -361 -77 -175 -201 -524 -219 -616 -1 -8 -8 -34 -14 -56 -13 -45 -59
-249 -68 -299 -10 -57 -14 -80 -19 -105 -3 -14 -8 -45 -11 -70 -3 -25 -6 -54
-8 -65 -4 -27 -16 -122 -21 -165 -14 -121 -19 -257 -19 -495 0 -247 4 -341 19
-480 3 -28 7 -68 10 -90 2 -22 5 -40 5 -40 1 0 3 -16 5 -35 2 -19 6 -46 8 -60
3 -14 8 -41 11 -60 3 -19 8 -48 12 -65 3 -16 7 -43 10 -60 3 -16 15 -68 26
-115 11 -47 21 -94 23 -105 8 -49 63 -237 98 -335 10 -30 20 -59 22 -65 2 -12
4 -16 57 -155 56 -147 169 -387 235 -500 14 -25 38 -65 52 -90 54 -93 88 -145
170 -258 46 -65 113 -160 149 -212 71 -104 110 -158 130 -178 6 -7 12 -17 12
-21 0 -5 10 -19 23 -32 12 -13 43 -49 67 -79 25 -30 47 -57 50 -60 3 -3 28
-32 55 -65 53 -63 102 -119 123 -141 6 -7 12 -17 12 -23 0 -6 3 -11 8 -11 4 0
30 -28 57 -62 28 -34 64 -77 80 -94 17 -18 37 -42 45 -52 8 -11 34 -42 57 -68
23 -27 110 -130 193 -229 84 -99 162 -191 173 -205 12 -14 47 -54 77 -90 30
-35 60 -70 65 -76 6 -6 26 -30 45 -54 19 -24 40 -48 45 -54 6 -6 44 -51 85
-101 41 -49 77 -92 80 -95 3 -3 24 -27 45 -55 22 -27 42 -52 46 -55 3 -3 43
-52 90 -110 46 -57 93 -114 104 -126 11 -12 31 -37 45 -55 14 -18 51 -64 84
-103 32 -39 73 -88 90 -109 39 -48 63 -77 84 -102 9 -11 37 -45 62 -75 25 -30
49 -60 55 -66 5 -6 16 -21 24 -32 8 -12 19 -18 24 -15 6 3 15 -1 21 -9 36 -48
101 -118 110 -118 6 1 41 40 78 88 37 48 75 96 85 107 10 11 63 76 118 145 55
69 124 154 153 190 30 36 63 78 75 93 12 15 32 39 45 52 12 13 22 29 22 35 0
5 4 10 8 10 5 0 23 20 41 45 17 24 37 50 44 57 7 7 30 35 52 63 22 27 45 55
50 61 6 7 21 26 35 44 14 18 30 37 35 44 6 6 37 45 70 86 33 41 67 84 77 95 9
11 50 63 92 115 42 52 84 104 94 115 10 11 33 40 52 65 19 25 37 47 40 50 3 3
24 28 45 55 22 28 42 52 45 55 4 4 69 85 180 223 8 11 20 24 25 31 6 6 64 78
130 161 66 82 125 155 130 161 6 6 21 26 35 44 14 18 32 40 41 49 8 9 31 36
50 61 18 25 42 54 51 65 65 78 183 233 229 300 30 44 57 82 62 83 4 2 7 8 7
13 0 5 17 35 37 66 132 206 272 505 367 783 29 87 75 240 81 271 2 11 7 29 10
39 3 10 8 28 10 39 3 12 7 29 9 39 15 66 46 226 53 267 8 54 9 64 13 68 1 1 3
18 4 37 5 58 17 157 22 182 11 53 36 183 39 207 2 14 7 44 10 66 11 70 21 145
30 235 15 130 19 241 18 500 0 250 -3 321 -17 455 -2 17 -7 62 -11 100 -4 39
-9 79 -12 90 -2 11 -6 34 -8 50 -6 52 -38 225 -56 305 -6 25 -12 52 -14 60 -2
8 -13 53 -25 100 -12 47 -23 90 -25 95 -1 6 -5 17 -8 25 -3 8 -18 56 -32 105
-27 88 -93 270 -120 330 -7 17 -25 59 -40 95 -40 95 -154 322 -174 344 -9 10
-14 19 -13 20 8 3 -158 271 -187 303 -6 7 -11 17 -11 23 0 5 -4 10 -8 10 -4 0
-16 14 -26 32 -17 28 -37 54 -71 92 -5 6 -22 27 -37 48 -15 20 -33 42 -40 50
-7 7 -42 47 -78 87 -114 131 -313 317 -435 406 -22 17 -42 33 -45 36 -14 16
-294 199 -306 199 -2 0 -22 11 -44 25 -22 14 -40 22 -40 18 0 -5 -4 -3 -8 2
-7 11 -33 23 -152 78 -68 31 -323 122 -355 127 -3 1 -26 7 -52 15 -27 8 -73
19 -103 25 -30 6 -66 13 -80 16 -27 6 -39 7 -120 19 -30 4 -64 9 -75 12 -23 5
-461 13 -467 8z"/>
</g>
</svg>
